<svg width="100" height="100" viewBox="0 0 100 100" fill="none" xmlns="http://www.w3.org/2000/svg">
<rect width="100" height="100" rx="50" fill="white"/>
<path d="M60.7143 52.5637V45.6645C60.7143 45.0898 60.4885 44.5387 60.0867 44.1323C59.6848 43.726 59.1397 43.4977 58.5714 43.4977V29.227C58.5715 28.3358 58.3463 27.4594 57.9171 26.681C57.4878 25.9027 56.8689 25.2482 56.1191 24.7799C55.3692 24.3115 54.5134 24.0449 53.633 24.0052C52.7525 23.9655 51.8766 24.1542 51.0886 24.5532L45.47 27.3917C44.2533 28.0036 43.23 28.9473 42.5159 30.1163C41.8017 31.2853 41.4251 32.633 41.4286 34.007V43.4977C40.8603 43.4977 40.3152 43.726 39.9133 44.1323C39.5115 44.5387 39.2857 45.0898 39.2857 45.6645V52.5637C38.0366 53.0102 36.9545 53.8361 36.1873 54.9283C35.4202 56.0206 35.0055 57.3258 35 58.6654V65.1659C35.0034 68.0382 36.1333 70.7919 38.1419 72.823C40.1505 74.854 42.8737 75.9966 45.7143 76H54.2857C57.1263 75.9966 59.8495 74.854 61.8581 72.823C63.8667 70.7919 64.9966 68.0382 65 65.1659V58.6654C64.9945 57.3258 64.5798 56.0206 63.8127 54.9283C63.0455 53.8361 61.9634 53.0102 60.7143 52.5637ZM43.5714 52.165V47.8313H56.4286V52.165H43.5714ZM45.7143 34.007C45.7127 33.4381 45.8686 32.88 46.1644 32.396C46.4601 31.912 46.8839 31.5213 47.3879 31.2682L53 28.4296C53.1347 28.3591 53.2852 28.3249 53.4369 28.3305C53.5885 28.336 53.7361 28.3811 53.8655 28.4613C53.9948 28.5415 54.1015 28.6542 54.1751 28.7883C54.2487 28.9225 54.2868 29.0736 54.2857 29.227V43.4977H45.7143V34.007ZM60.7143 65.1659C60.7143 66.8899 60.037 68.5433 58.8314 69.7624C57.6258 70.9815 55.9907 71.6664 54.2857 71.6664H45.7143C44.0093 71.6664 42.3742 70.9815 41.1686 69.7624C39.963 68.5433 39.2857 66.8899 39.2857 65.1659V58.6654C39.2857 58.0908 39.5115 57.5396 39.9133 57.1333C40.3152 56.7269 40.8603 56.4986 41.4286 56.4986H58.5714C59.1397 56.4986 59.6848 56.7269 60.0867 57.1333C60.4885 57.5396 60.7143 58.0908 60.7143 58.6654V65.1659Z" fill="#7C6E67"/>
</svg>
