<svg width="100" height="100" viewBox="0 0 100 100" fill="none" xmlns="http://www.w3.org/2000/svg">
<rect width="100" height="100" rx="50" fill="white"/>
<path d="M63.942 40.916L74 30.858L71.142 28L61.05 38.09L56.638 33.778C55.914 33.0743 54.9518 32.6686 53.9425 32.6416C52.9332 32.6145 51.9507 32.9681 51.19 33.632C47.4776 36.9937 43.1585 39.6171 38.464 41.362L26 45.016V46.528C26.0823 53.3539 28.8681 59.8686 33.7466 64.6436C38.625 69.4185 45.1979 72.064 52.024 72H54.506L55.028 71.636C59.1058 69.0219 62.4889 65.458 64.8875 61.2498C67.2861 57.0417 68.6286 52.3147 68.8 47.474C68.8152 46.9166 68.7144 46.3621 68.504 45.8457C68.2937 45.3293 67.9783 44.8622 67.578 44.474L63.942 40.916ZM53.812 36.668L64.766 47.35C64.7062 49.3894 64.4 51.4141 63.854 53.38L49.894 39.788C51.2519 38.8149 52.5596 37.7736 53.812 36.668ZM53.224 67.958H52.024C49.0766 67.9582 46.1584 67.3743 43.438 66.24C46.9334 64.4838 49.9256 61.8688 52.134 58.64L53.17 57.12L49.832 54.848L48.796 56.37C46.9701 59.0329 44.4983 61.1889 41.612 62.636L39.154 63.872C37.1555 62.4652 35.4078 60.7324 33.984 58.746C37.2462 57.6415 40.2225 55.8265 42.698 53.432L39.876 50.542C37.6408 52.7073 34.9134 54.2975 31.928 55.176C30.8925 52.9216 30.2687 50.5001 30.086 48.026L39.596 45.238C42.001 44.4659 44.3006 43.3977 46.442 42.058L62.264 57.458C60.1719 61.6549 57.0662 65.2637 53.228 67.958H53.224Z" fill="#7C6E67"/>
</svg>
