<svg width="100" height="100" viewBox="0 0 100 100" fill="none" xmlns="http://www.w3.org/2000/svg">
<rect width="100" height="100" rx="50" fill="white"/>
<g clip-path="url(#clip0_1433_742)">
<path d="M74.9999 48.9583C74.9988 47.5216 74.5732 46.1172 73.7767 44.9215C72.9802 43.7258 71.8482 42.7921 70.5228 42.2375C69.677 37.4091 67.1556 33.0335 63.4022 29.8805C59.6489 26.7275 54.9039 24.999 50.002 24.999C45.1 24.999 40.3551 26.7275 36.6017 29.8805C32.8483 33.0335 30.327 37.4091 29.4811 42.2375C27.9686 42.8738 26.715 44.0017 25.9229 45.4387C25.1308 46.8758 24.8466 48.538 25.1162 50.1566C25.3858 51.7752 26.1935 53.2555 27.4086 54.3583C28.6237 55.461 30.1753 56.1216 31.8124 56.2333C32.8884 58.5168 34.3477 60.599 36.127 62.3896C33.5199 65.2362 31.8653 68.825 31.3936 72.6562C31.3595 72.9278 31.3792 73.2034 31.4516 73.4673C31.524 73.7313 31.6477 73.9783 31.8157 74.1944C31.9836 74.4105 32.1925 74.5914 32.4303 74.7268C32.6682 74.8622 32.9304 74.9493 33.202 74.9833C33.2877 74.9938 33.374 74.9993 33.4603 75C33.9673 74.9994 34.4567 74.8139 34.8368 74.4783C35.2169 74.1428 35.4615 73.6801 35.5249 73.1771C35.9026 70.1566 37.2262 67.333 39.3061 65.1104C42.4085 67.4004 46.1447 68.672 49.9999 68.75C53.8437 68.6713 57.569 67.405 60.6645 65.125C62.7354 67.3437 64.0536 70.1593 64.4311 73.1708C64.4941 73.6742 64.7385 74.1374 65.1186 74.4734C65.4987 74.8094 65.9884 74.9952 66.4957 74.9958C66.5828 74.9954 66.6697 74.9898 66.7561 74.9791C67.3042 74.9105 67.8025 74.627 68.1416 74.191C68.4807 73.755 68.6328 73.2022 68.5645 72.6541C68.0962 68.8327 66.4499 65.2517 63.8541 62.4083C65.6432 60.6122 67.1103 58.5221 68.1916 56.2291C70.0369 56.1066 71.7667 55.2874 73.0307 53.9374C74.2948 52.5875 74.9987 50.8077 74.9999 48.9583ZM67.1832 52.0271C66.6973 51.938 66.1956 52.0258 65.7687 52.2746C65.3419 52.5233 65.0182 52.9166 64.8561 53.3833C62.9478 58.7958 56.5207 64.5833 49.9999 64.5833C43.4791 64.5833 37.052 58.7916 35.1436 53.3791C34.9812 52.9127 34.6574 52.5197 34.2307 52.271C33.804 52.0223 33.3025 51.9343 32.8166 52.0229C32.6434 52.0568 32.4679 52.077 32.2916 52.0833C31.5182 52.0741 30.7757 51.7784 30.2078 51.2534C29.6398 50.7284 29.2867 50.0115 29.2167 49.2413C29.1467 48.471 29.3649 47.7022 29.8289 47.0835C30.293 46.4648 30.97 46.0401 31.7291 45.8916C32.172 45.8113 32.577 45.5897 32.8835 45.26C33.1899 44.9302 33.3814 44.5101 33.4291 44.0625C33.7073 41.3985 34.6266 38.8416 36.1083 36.6104C37.59 34.3791 39.59 32.5399 41.9374 31.25C41.5963 32.5752 41.5805 33.9632 41.8916 35.2958C42.3151 37.0581 43.3017 38.6342 44.7017 39.7853C46.1017 40.9364 47.8388 41.5997 49.6497 41.6746C51.4607 41.7495 53.2466 41.2319 54.7369 40.2004C56.2272 39.1689 57.3406 37.6796 57.9082 35.9583C58.0008 35.6525 58.0201 35.3293 57.9645 35.0147C57.909 34.7001 57.7801 34.403 57.5884 34.1474C57.3968 33.8918 57.1476 33.6849 56.8611 33.5435C56.5747 33.4021 56.2589 33.3301 55.9395 33.3333H55.6249C55.2417 33.3459 54.8725 33.48 54.5706 33.7163C54.2687 33.9527 54.0499 34.2789 53.9457 34.6479C53.7036 35.3762 53.2649 36.0236 52.6782 36.5184C52.0914 37.0133 51.3794 37.3364 50.6206 37.4523C49.8619 37.5681 49.0858 37.4721 48.3782 37.1748C47.6705 36.8775 47.0587 36.3906 46.6103 35.7676C46.1618 35.1447 45.8942 34.41 45.8369 33.6446C45.7795 32.8792 45.9347 32.1128 46.2853 31.43C46.6359 30.7472 47.1683 30.1745 47.8238 29.7751C48.4793 29.3757 49.2323 29.1652 49.9999 29.1666C54.1162 29.1568 58.0897 30.6748 61.151 33.4266C64.2123 36.1785 66.1435 39.9684 66.5707 44.0625C66.6184 44.5101 66.8098 44.9302 67.1163 45.26C67.4228 45.5897 67.8278 45.8113 68.2707 45.8916C69.0298 46.0401 69.7068 46.4648 70.1708 47.0835C70.6349 47.7022 70.853 48.471 70.7831 49.2413C70.7131 50.0115 70.36 50.7284 69.792 51.2534C69.224 51.7784 68.4816 52.0741 67.7082 52.0833C67.532 52.0784 67.3565 52.0596 67.1832 52.0271Z" fill="#7C6E67"/>
<path d="M44.7915 52.0835C46.5174 52.0835 47.9165 50.6844 47.9165 48.9585C47.9165 47.2326 46.5174 45.8335 44.7915 45.8335C43.0656 45.8335 41.6665 47.2326 41.6665 48.9585C41.6665 50.6844 43.0656 52.0835 44.7915 52.0835Z" fill="#7C6E67"/>
<path d="M55.2085 52.0835C56.9344 52.0835 58.3335 50.6844 58.3335 48.9585C58.3335 47.2326 56.9344 45.8335 55.2085 45.8335C53.4826 45.8335 52.0835 47.2326 52.0835 48.9585C52.0835 50.6844 53.4826 52.0835 55.2085 52.0835Z" fill="#7C6E67"/>
</g>
<defs>
<clipPath id="clip0_1433_742">
<rect width="50" height="50" fill="white" transform="translate(25 25)"/>
</clipPath>
</defs>
</svg>
