<svg width="100" height="100" viewBox="0 0 100 100" fill="none" xmlns="http://www.w3.org/2000/svg">
<rect width="100" height="100" rx="50" fill="white"/>
<path d="M63.4167 31H36.5833C31.2991 31 27 35.2617 27 40.5V67.1C27 68.1507 27.8587 69 28.9167 69C29.9747 69 30.8333 68.1507 30.8333 67.1V63.3H69.1667V67.1C69.1667 68.1507 70.0234 69 71.0833 69C72.1432 69 73 68.1507 73 67.1V40.5C73 35.2617 68.7009 31 63.4167 31ZM36.5833 34.8H63.4167C66.5868 34.8 69.1667 37.3574 69.1667 40.5V51.9H65.3333C65.3333 47.7086 61.8948 44.3 57.6667 44.3H55.75C53.4615 44.3 51.4068 45.2994 50 46.8783C48.5932 45.2975 46.5385 44.3 44.25 44.3H42.3333C38.1052 44.3 34.6667 47.7086 34.6667 51.9H30.8333V40.5C30.8333 37.3574 33.4132 34.8 36.5833 34.8ZM51.9167 51.9C51.9167 49.8043 53.6359 48.1 55.75 48.1H57.6667C59.7807 48.1 61.5 49.8043 61.5 51.9H51.9167ZM38.5 51.9C38.5 49.8043 40.2192 48.1 42.3333 48.1H44.25C46.3641 48.1 48.0833 49.8043 48.0833 51.9H38.5ZM30.8333 59.5V55.7H69.1667V59.5H30.8333Z" fill="#7C6E67"/>
</svg>
