<svg width="20" height="20" viewBox="0 0 20 20" fill="none" xmlns="http://www.w3.org/2000/svg">
<g clip-path="url(#clip0_49_384)">
<path d="M14.5833 1.59747C13.645 1.61207 12.7271 1.87402 11.9223 2.35687C11.1176 2.83971 10.4545 3.52636 10 4.34747C9.54554 3.52636 8.88245 2.83971 8.0777 2.35687C7.27296 1.87402 6.35505 1.61207 5.41667 1.59747C3.92079 1.66247 2.51143 2.31685 1.49649 3.41767C0.481556 4.51848 -0.0564528 5.97624 5.93206e-06 7.47247C5.93206e-06 11.2616 3.98834 15.4 7.33334 18.2058C8.08019 18.8334 9.02447 19.1775 10 19.1775C10.9755 19.1775 11.9198 18.8334 12.6667 18.2058C16.0117 15.4 20 11.2616 20 7.47247C20.0565 5.97624 19.5185 4.51848 18.5035 3.41767C17.4886 2.31685 16.0792 1.66247 14.5833 1.59747ZM11.5958 16.9308C11.1492 17.307 10.584 17.5132 10 17.5132C9.41605 17.5132 8.85085 17.307 8.40417 16.9308C4.12251 13.3383 1.66667 9.89164 1.66667 7.47247C1.60971 6.41807 1.97198 5.38391 2.67448 4.59556C3.37697 3.8072 4.3627 3.3286 5.41667 3.26414C6.47064 3.3286 7.45637 3.8072 8.15887 4.59556C8.86137 5.38391 9.22364 6.41807 9.16667 7.47247C9.16667 7.69349 9.25447 7.90545 9.41075 8.06173C9.56703 8.21801 9.77899 8.30581 10 8.30581C10.221 8.30581 10.433 8.21801 10.5893 8.06173C10.7455 7.90545 10.8333 7.69349 10.8333 7.47247C10.7764 6.41807 11.1386 5.38391 11.8411 4.59556C12.5436 3.8072 13.5294 3.3286 14.5833 3.26414C15.6373 3.3286 16.623 3.8072 17.3255 4.59556C18.028 5.38391 18.3903 6.41807 18.3333 7.47247C18.3333 9.89164 15.8775 13.3383 11.5958 16.9275V16.9308Z" fill="#FFF3E7"/>
</g>
<defs>
<clipPath id="clip0_49_384">
<rect width="20" height="20" fill="white"/>
</clipPath>
</defs>
</svg>
