<svg width="22" height="22" viewBox="0 0 22 22" fill="none" xmlns="http://www.w3.org/2000/svg">
<g clip-path="url(#clip0_144_1220)">
<path d="M16.0417 1.75726C15.0095 1.77332 13.9998 2.06146 13.1146 2.59259C12.2294 3.12373 11.5 3.87904 11 4.78226C10.5001 3.87904 9.77073 3.12373 8.88551 2.59259C8.00029 2.06146 6.99059 1.77332 5.95838 1.75726C4.31291 1.82875 2.76261 2.54858 1.64618 3.75948C0.529748 4.97037 -0.0620615 6.57391 4.31468e-05 8.21976C4.31468e-05 12.3878 4.38721 16.94 8.06671 20.0264C8.88824 20.7168 9.92695 21.0953 11 21.0953C12.0731 21.0953 13.1118 20.7168 13.9334 20.0264C17.6129 16.94 22 12.3878 22 8.21976C22.0621 6.57391 21.4703 4.97037 20.3539 3.75948C19.2375 2.54858 17.6872 1.82875 16.0417 1.75726Z" fill="#C4A9A5"/>
</g>
<defs>
<clipPath id="clip0_144_1220">
<rect width="22" height="22" fill="white"/>
</clipPath>
</defs>
</svg>
