<?xml version="1.0" encoding="utf-8"?>
<!-- Generator: Adobe Illustrator 23.0.2, SVG Export Plug-In . SVG Version: 6.00 Build 0)  -->
<svg version="1.1" id="圖層_1" xmlns="http://www.w3.org/2000/svg" xmlns:xlink="http://www.w3.org/1999/xlink" x="0px" y="0px"
	 viewBox="0 0 24 24" style="enable-background:new 0 0 24 24;" xml:space="preserve">
<style type="text/css">
	.st0{fill:#7DB98A;}
</style>
<path class="st0" d="M12,2c5.5,0,10,4.5,10,10c0,5.5-4.5,10-10,10C6.5,22,2,17.5,2,12C2,6.5,6.5,2,12,2z M12,3.5
	c-4.7,0-8.5,3.8-8.5,8.5s3.8,8.5,8.5,8.5s8.5-3.8,8.5-8.5S16.7,3.5,12,3.5z M6.9,12.4l3.9,3.4c0.1,0.1,0.3,0.2,0.5,0.2
	c0.2,0,0.4-0.1,0.6-0.2l6-6.5C17.9,9.1,18,8.9,18,8.8C18,8.3,17.7,8,17.3,8c-0.2,0-0.4,0.1-0.6,0.2l-5.5,6l-3.3-2.9
	c-0.1-0.1-0.3-0.2-0.5-0.2c-0.4,0-0.7,0.3-0.7,0.7C6.7,12,6.8,12.2,6.9,12.4z"/>
</svg>
