<svg width="50" height="50" viewBox="0 0 50 50" fill="none" xmlns="http://www.w3.org/2000/svg">
<g clip-path="url(#clip0_49_384)">
<path d="M36.4583 3.99377C34.1124 4.03026 31.8176 4.68514 29.8058 5.89226C27.7939 7.09938 26.1362 8.816 25 10.8688C23.8638 8.816 22.2061 7.09938 20.1943 5.89226C18.1824 4.68514 15.8876 4.03026 13.5417 3.99377C9.80197 4.15626 6.27857 5.79222 3.74123 8.54426C1.20389 11.2963 -0.141132 14.9407 1.48294e-05 18.6813C1.48294e-05 28.1542 9.97085 38.5 18.3333 45.5146C20.2005 47.0836 22.5612 47.9438 25 47.9438C27.4389 47.9438 29.7996 47.0836 31.6667 45.5146C40.0292 38.5 50 28.1542 50 18.6813C50.1412 14.9407 48.7961 11.2963 46.2588 8.54426C43.7215 5.79222 40.198 4.15626 36.4583 3.99377ZM28.9896 42.3271C27.8729 43.2675 26.4599 43.7832 25 43.7832C23.5401 43.7832 22.1271 43.2675 21.0104 42.3271C10.3063 33.3459 4.16668 24.7292 4.16668 18.6813C4.02427 16.0453 4.92994 13.4599 6.68619 11.489C8.44243 9.51809 10.9068 8.32159 13.5417 8.16044C16.1766 8.32159 18.6409 9.51809 20.3972 11.489C22.1534 13.4599 23.0591 16.0453 22.9167 18.6813C22.9167 19.2338 23.1362 19.7637 23.5269 20.1544C23.9176 20.5451 24.4475 20.7646 25 20.7646C25.5525 20.7646 26.0824 20.5451 26.4731 20.1544C26.8638 19.7637 27.0833 19.2338 27.0833 18.6813C26.9409 16.0453 27.8466 13.4599 29.6028 11.489C31.3591 9.51809 33.8234 8.32159 36.4583 8.16044C39.0933 8.32159 41.5576 9.51809 43.3138 11.489C45.0701 13.4599 45.9758 16.0453 45.8333 18.6813C45.8333 24.7292 39.6938 33.3459 28.9896 42.3188V42.3271Z" fill="#DCC1BD"/>
</g>
<defs>
<clipPath id="clip0_49_384">
<rect width="50" height="50" fill="white"/>
</clipPath>
</defs>
</svg>
