<svg width="21" height="21" viewBox="0 0 21 21" fill="none" xmlns="http://www.w3.org/2000/svg">
<path d="M13.8083 14.6925C12.5758 15.7241 10.9883 16.3466 9.25746 16.3466C5.34329 16.3466 2.16663 13.17 2.16663 9.25663C2.16663 5.34329 5.34329 2.16663 9.25746 2.16663C13.17 2.16663 16.3475 5.34329 16.3475 9.25663C16.3475 10.9883 15.725 12.5766 14.6933 13.8075L18.6508 17.7658C18.7725 17.8875 18.8333 18.0475 18.8333 18.2083C18.8333 18.6975 18.3858 18.8333 18.2083 18.8333C18.0483 18.8333 17.8883 18.7725 17.7658 18.65L13.8083 14.6925ZM9.25746 3.41746C6.03413 3.41746 3.41829 6.03413 3.41829 9.25663C3.41829 12.4791 6.03413 15.0958 9.25746 15.0958C12.4791 15.0958 15.0966 12.4791 15.0966 9.25663C15.0966 6.03413 12.4791 3.41746 9.25746 3.41746Z" fill="#DCC1BD"/>
</svg>
