<svg width="30" height="24" viewBox="0 0 30 24" fill="none" xmlns="http://www.w3.org/2000/svg">
<path d="M3.57424 3.82028C2.80689 7.13659 2.80847 10.6065 3.57968 13.9221V13.9245C3.86096 15.1136 4.93209 15.8798 6.04665 15.704C8.63437 15.3316 11.0016 14.1922 13.1101 12.6285C13.1155 12.6255 13.1172 12.6231 13.121 12.6203L13.4957 12.3274C12.8653 12.0123 12.4214 11.3157 12.4214 10.513V10.4863L10.9108 10.9373C10.6213 11.024 10.3223 10.8372 10.2432 10.52C10.164 10.2025 10.3353 9.87497 10.6253 9.78888L12.4214 9.25305V8.61145L10.6253 8.07445C10.3358 7.98835 10.1647 7.66161 10.2432 7.34451C10.3094 7.07583 10.537 6.89334 10.7909 6.90515C10.8317 6.90694 10.8717 6.9142 10.9108 6.9261L12.4214 7.37708V7.21552C12.4214 6.41184 12.8661 5.71369 13.4978 5.3988L13.1252 5.10822C10.1027 2.66854 6.19497 2.04402 6.04691 2.02109C5.15276 1.88402 3.90057 2.41113 3.57424 3.82028ZM24.9545 2.021C24.1486 2.14559 20.7966 2.78326 17.8762 5.1093L17.5047 5.39872C18.1359 5.71382 18.58 6.41213 18.58 7.21544V7.377L20.0906 6.92602C20.1297 6.91418 20.17 6.90716 20.2106 6.90507C20.4645 6.89329 20.692 7.07575 20.7583 7.34443C20.8368 7.66154 20.6657 7.98827 20.3761 8.07438L18.58 8.61137V9.25298L20.3761 9.78881C20.6662 9.87489 20.8374 10.2024 20.7583 10.5199C20.6792 10.8371 20.3802 11.0239 20.0906 10.9372L18.58 10.4862V10.5129C18.58 11.3156 18.1362 12.0122 17.5057 12.3273L17.8805 12.6202C17.8859 12.6232 17.8876 12.6256 17.8908 12.6284C19.9993 14.1922 22.3665 15.3315 24.9542 15.7039C26.0688 15.8797 27.14 15.1136 27.4212 13.9244V13.922C28.1912 10.6064 28.1928 7.13651 27.4267 3.8202C27.1001 2.41015 25.8474 1.88395 24.9545 2.021ZM14.2426 5.81484C13.5436 5.81484 12.9645 6.45 12.9645 7.21544V10.513C12.9645 11.2784 13.5436 11.9124 14.2426 11.9124H16.7584C17.4575 11.9124 18.0365 11.2784 18.0365 10.513V7.21544C18.0365 6.45 17.4575 5.81484 16.7584 5.81484H14.2426ZM14.2034 12.5064L13.4381 13.1038V13.105C13.4315 13.1097 13.4255 13.1153 13.419 13.1201V13.1213C11.7709 14.3437 9.95805 15.3195 7.99994 15.8865L6.3344 18.6214C6.07242 19.052 6.40237 19.6183 6.86937 19.5397L9.70052 19.0631L10.7759 21.6516C10.9687 22.115 11.5694 22.1164 11.7641 21.654L15.505 12.7424L19.2458 21.6539C19.4405 22.1164 20.0413 22.115 20.2341 21.6516L21.3094 19.063L24.1405 19.5396C24.6076 19.6183 24.9375 19.052 24.6755 18.6214L23.0089 15.8853C21.0514 15.3183 19.2386 14.3433 17.5909 13.1212V13.12C17.5838 13.1147 17.5768 13.1093 17.5697 13.1038L16.8043 12.5064C15.9396 12.5087 15.0746 12.5081 14.2099 12.5064L14.2034 12.5064Z" fill="#FCFCFC"/>
</svg>
