<svg width="72" height="72" viewBox="0 0 72 72" fill="none" xmlns="http://www.w3.org/2000/svg">
<path d="M7.37818 18.8234C5.53654 25.789 5.54034 33.0772 7.39124 40.0413V40.0463C8.0663 42.5441 10.637 44.1534 13.312 43.7841C19.5225 43.0019 25.204 40.6088 30.2642 37.3242C30.2773 37.318 30.2812 37.313 30.2903 37.3071L31.1897 36.6919C29.6767 36.03 28.6114 34.5669 28.6114 32.8809V32.8247L24.986 33.772C24.291 33.9542 23.5734 33.5617 23.3836 32.8955C23.1937 32.2287 23.6046 31.5407 24.3008 31.3599L28.6114 30.2344V28.8868L24.3008 27.7589C23.6058 27.578 23.1953 26.8918 23.3836 26.2257C23.5426 25.6614 24.0887 25.2781 24.6981 25.3029C24.796 25.3066 24.8921 25.3219 24.986 25.3469L28.6114 26.2941V25.9548C28.6114 24.2667 29.6786 22.8003 31.1946 22.1389L30.3005 21.5286C23.0464 16.4042 13.6679 15.0925 13.3126 15.0443C11.1666 14.7564 8.16138 15.8635 7.37818 18.8234ZM58.6909 15.0441C56.7566 15.3058 48.7119 16.6452 41.7029 21.5308L40.8112 22.1387C42.3262 22.8006 43.3921 24.2673 43.3921 25.9546V26.294L47.0174 25.3467C47.1114 25.3218 47.2079 25.3071 47.3053 25.3027C47.9148 25.278 48.4608 25.6612 48.6198 26.2255C48.8082 26.8916 48.3977 27.5779 47.7026 27.7587L43.3921 28.8866V30.2343L47.7026 31.3598C48.399 31.5406 48.8098 32.2285 48.6198 32.8954C48.43 33.5616 47.7125 33.954 47.0174 33.7718L43.3921 32.8246V32.8807C43.3921 34.5667 42.3268 36.0298 40.8138 36.6917L41.7131 37.3069C41.7262 37.3132 41.7302 37.3182 41.738 37.324C46.7982 40.6087 52.4795 43.0017 58.6901 43.7839C61.365 44.1532 63.9359 42.544 64.611 40.0462V40.0412C66.4589 33.0771 66.4628 25.7888 64.624 18.8232C63.8403 15.8615 60.8337 14.7562 58.6909 15.0441ZM32.9822 23.0128C31.3046 23.0128 29.9149 24.3469 29.9149 25.9546V32.8808C29.9149 34.4885 31.3046 35.8202 32.9822 35.8202H39.0201C40.6979 35.8202 42.0877 34.4885 42.0877 32.8808V25.9546C42.0877 24.3469 40.6979 23.0128 39.0201 23.0128H32.9822ZM32.8883 37.0677L31.0513 38.3226V38.3251C31.0357 38.3351 31.0213 38.3467 31.0056 38.3569V38.3594C27.0501 40.9269 22.6993 42.9764 17.9999 44.1674L14.0026 49.9119C13.3738 50.8164 14.1657 52.0059 15.2865 51.8406L22.0812 50.8397L24.6621 56.2766C25.125 57.25 26.5667 57.2529 27.0338 56.2816L36.012 37.5635L44.9899 56.2815C45.4572 57.2529 46.8991 57.25 47.3619 56.2765L49.9426 50.8395L56.7372 51.8405C57.8581 52.0058 58.65 50.8163 58.0213 49.9118L54.0214 44.1648C49.3233 42.9739 44.9727 40.9261 41.0181 38.3592V38.3567C41.0011 38.3455 40.9842 38.3342 40.9673 38.3226L39.1303 37.0678C37.0549 37.0728 34.9791 37.0715 32.9039 37.0678L32.8883 37.0677Z" fill="#DCC1BD"/>
</svg>
