<svg width="20" height="20" viewBox="0 0 20 20" fill="none" xmlns="http://www.w3.org/2000/svg">
<path d="M16.2509 20C16.0843 20.0001 15.9215 19.9503 15.7835 19.8571C15.6455 19.7638 15.5387 19.6313 15.4767 19.4767L14.7734 17.7158L13.01 16.9733C12.8588 16.9065 12.7306 16.7965 12.6416 16.6571C12.5527 16.5177 12.5069 16.3552 12.51 16.1899C12.5131 16.0245 12.565 15.8638 12.6592 15.7279C12.7533 15.592 12.8855 15.4869 13.0392 15.4258L14.7792 14.7666L15.4767 13.0233C15.5409 12.871 15.6485 12.7409 15.7862 12.6495C15.924 12.5581 16.0856 12.5093 16.2509 12.5093C16.4162 12.5093 16.5778 12.5581 16.7155 12.6495C16.8532 12.7409 16.9609 12.871 17.0251 13.0233L17.7259 14.7733L19.4759 15.4741C19.6286 15.538 19.7589 15.6456 19.8506 15.7833C19.9423 15.9211 19.9913 16.0828 19.9913 16.2483C19.9913 16.4138 19.9423 16.5756 19.8506 16.7133C19.7589 16.8511 19.6286 16.9586 19.4759 17.0225L17.7259 17.7233L17.0251 19.4733C16.9636 19.6286 16.857 19.7618 16.7189 19.8557C16.5809 19.9496 16.4178 19.9999 16.2509 20ZM8.33413 17.5C7.9741 17.5043 7.62235 17.3919 7.33153 17.1797C7.0407 16.9674 6.82643 16.6667 6.72078 16.3225L5.37576 12.1166L1.15655 10.705C0.816014 10.5911 0.520473 10.372 0.312612 10.0793C0.104751 9.78649 -0.00466996 9.43523 0.000152845 9.07621C0.00497565 8.71719 0.123793 8.369 0.339443 8.08192C0.555093 7.79484 0.856413 7.58375 1.19988 7.47911L5.38576 6.20077L6.79578 1.98909C6.90061 1.64315 7.11747 1.34187 7.41224 1.13263C7.70701 0.923399 8.06297 0.818083 8.42413 0.83325C8.78421 0.833737 9.13446 0.950829 9.42244 1.167C9.71042 1.38317 9.92064 1.68679 10.0216 2.03242L11.2983 6.21161L15.49 7.55328C15.8281 7.66668 16.1221 7.88343 16.3303 8.17292C16.5386 8.46241 16.6506 8.81001 16.6506 9.16662C16.6506 9.52323 16.5386 9.87082 16.3303 10.1603C16.1221 10.4498 15.8281 10.6666 15.49 10.78L11.2908 12.1233L9.94748 16.3225C9.84183 16.6667 9.62756 16.9674 9.33673 17.1797C9.0459 17.3919 8.69415 17.5043 8.33413 17.5ZM17.0842 5.83327C16.8984 5.83327 16.718 5.77119 16.5715 5.65689C16.4251 5.5426 16.321 5.38264 16.2759 5.20244L15.9784 4.01076L14.7842 3.68993C14.6047 3.64171 14.4465 3.53487 14.3347 3.3864C14.2229 3.23793 14.164 3.05635 14.1672 2.87053C14.1705 2.68471 14.2358 2.50531 14.3527 2.36085C14.4696 2.21639 14.6315 2.11516 14.8125 2.07326L15.9792 1.80242L16.2759 0.630749C16.321 0.450559 16.4251 0.290624 16.5716 0.176346C16.718 0.062068 16.8985 0 17.0842 0C17.27 0 17.4504 0.062068 17.5969 0.176346C17.7433 0.290624 17.8474 0.450559 17.8926 0.630749L18.1876 1.81242L19.3692 2.10826C19.5494 2.15342 19.7094 2.25749 19.8237 2.40394C19.9379 2.55039 20 2.73083 20 2.91659C20 3.10235 19.9379 3.28279 19.8237 3.42925C19.7094 3.5757 19.5494 3.67977 19.3692 3.72493L18.1876 4.02076L17.8926 5.20244C17.8474 5.38264 17.7434 5.5426 17.5969 5.65689C17.4504 5.77119 17.27 5.83327 17.0842 5.83327Z" fill="white"/>
</svg>
