<svg width="50" height="50" viewBox="0 0 50 50" fill="none" xmlns="http://www.w3.org/2000/svg">
<g clip-path="url(#clip0_49_387)">
<path d="M36.4583 3.99377C34.1124 4.03026 31.8176 4.68514 29.8058 5.89226C27.7939 7.09938 26.1362 8.816 25 10.8688C23.8638 8.816 22.2061 7.09938 20.1943 5.89226C18.1824 4.68514 15.8876 4.03026 13.5417 3.99377C9.80197 4.15626 6.27857 5.79222 3.74123 8.54426C1.20389 11.2963 -0.141132 14.9407 1.48294e-05 18.6813C1.48294e-05 28.1542 9.97085 38.5 18.3333 45.5146C20.2005 47.0836 22.5612 47.9438 25 47.9438C27.4389 47.9438 29.7996 47.0836 31.6667 45.5146C40.0292 38.5 50 28.1542 50 18.6813C50.1412 14.9407 48.7961 11.2963 46.2588 8.54426C43.7215 5.79222 40.198 4.15626 36.4583 3.99377Z" fill="#DCC1BD"/>
</g>
<defs>
<clipPath id="clip0_49_387">
<rect width="50" height="50" fill="white"/>
</clipPath>
</defs>
</svg>
