<?xml version="1.0" encoding="utf-8"?>
<!-- Generator: Adobe Illustrator 23.0.2, SVG Export Plug-In . SVG Version: 6.00 Build 0)  -->
<svg version="1.1" id="圖層_1" xmlns="http://www.w3.org/2000/svg" xmlns:xlink="http://www.w3.org/1999/xlink" x="0px" y="0px"
	 viewBox="0 0 24 24" style="enable-background:new 0 0 24 24;" xml:space="preserve">
<style type="text/css">
	.st0{fill:#DD7667;}
</style>
<path class="st0" d="M12,21.5c5.5,0,10-4.5,10-10s-4.5-10-10-10C6.5,1.5,2,6,2,11.5S6.5,21.5,12,21.5z M12,20
	c-4.7,0-8.5-3.8-8.5-8.5S7.3,3,12,3s8.5,3.8,8.5,8.5S16.7,20,12,20z M12,13.5c-0.4,0-0.8-0.3-0.8-0.8V7.3c0-0.4,0.3-0.8,0.8-0.8
	s0.8,0.3,0.8,0.8v5.5C12.8,13.2,12.4,13.5,12,13.5z M12,16.5c0.6,0,1-0.4,1-1c0-0.6-0.4-1-1-1s-1,0.4-1,1C11,16.1,11.4,16.5,12,16.5
	z"/>
</svg>
