<svg width="34" height="34" viewBox="0 0 34 34" fill="none" xmlns="http://www.w3.org/2000/svg">
<g clip-path="url(#clip0_162_1231)">
<path d="M32.1767 5.77575C31.7783 5.29754 31.2794 4.91293 30.7155 4.64924C30.1516 4.38555 29.5366 4.24924 28.9142 4.25H6.0095L5.95 3.75275C5.82823 2.71918 5.33146 1.7662 4.55386 1.07451C3.77626 0.382816 2.77189 0.000484207 1.73117 0L1.41667 0C1.04094 0 0.680609 0.149256 0.414932 0.414932C0.149256 0.680609 0 1.04094 0 1.41667C0 1.79239 0.149256 2.15272 0.414932 2.4184C0.680609 2.68408 1.04094 2.83333 1.41667 2.83333H1.73117C2.07816 2.83338 2.41306 2.96077 2.67236 3.19135C2.93166 3.42192 3.09732 3.73964 3.13792 4.08425L5.08725 20.6593C5.28962 22.383 6.11784 23.9725 7.4147 25.126C8.71156 26.2795 10.3868 26.9167 12.1224 26.9167H26.9167C27.2924 26.9167 27.6527 26.7674 27.9184 26.5017C28.1841 26.2361 28.3333 25.8757 28.3333 25.5C28.3333 25.1243 28.1841 24.7639 27.9184 24.4983C27.6527 24.2326 27.2924 24.0833 26.9167 24.0833H12.1224C11.2456 24.0809 10.391 23.8073 9.67574 23.3C8.96052 22.7928 8.41969 22.0767 8.12742 21.25H25.0141C26.6748 21.2501 28.2828 20.6667 29.5571 19.6016C30.8313 18.5366 31.6909 17.0577 31.9855 15.4233L33.0976 9.25508C33.2086 8.64309 33.1836 8.01418 33.0245 7.4129C32.8654 6.81163 32.576 6.25271 32.1767 5.77575ZM30.3167 8.75217L29.2032 14.9203C29.0263 15.9021 28.5097 16.7903 27.7438 17.4295C26.9779 18.0687 26.0116 18.4182 25.0141 18.4167H7.67692L6.34383 7.08333H28.9142C29.1223 7.08209 29.3281 7.12671 29.517 7.21403C29.7059 7.30134 29.8733 7.42921 30.0072 7.58853C30.141 7.74785 30.2382 7.93471 30.2917 8.13583C30.3452 8.33695 30.3537 8.54738 30.3167 8.75217Z" fill="#FFF3E7"/>
<path d="M9.91671 34C11.4815 34 12.75 32.7315 12.75 31.1667C12.75 29.6019 11.4815 28.3334 9.91671 28.3334C8.3519 28.3334 7.08337 29.6019 7.08337 31.1667C7.08337 32.7315 8.3519 34 9.91671 34Z" fill="#FFF3E7"/>
<path d="M24.0833 34C25.6481 34 26.9167 32.7315 26.9167 31.1667C26.9167 29.6019 25.6481 28.3334 24.0833 28.3334C22.5185 28.3334 21.25 29.6019 21.25 31.1667C21.25 32.7315 22.5185 34 24.0833 34Z" fill="#FFF3E7"/>
</g>
<defs>
<clipPath id="clip0_162_1231">
<rect width="34" height="34" fill="white"/>
</clipPath>
</defs>
</svg>
