<?xml version="1.0" encoding="utf-8"?>
<!-- Generator: Adobe Illustrator 23.0.2, SVG Export Plug-In . SVG Version: 6.00 Build 0)  -->
<svg version="1.1" id="圖層_1" xmlns="http://www.w3.org/2000/svg" xmlns:xlink="http://www.w3.org/1999/xlink" x="0px" y="0px"
	 viewBox="0 0 24 24" style="enable-background:new 0 0 24 24;" xml:space="preserve">
<style type="text/css">
	.st0{fill:#8A8A8A;}
</style>
<path class="st0" d="M16,17c-1.5,1.2-3.4,2-5.5,2C5.8,19,2,15.2,2,10.5S5.8,2,10.5,2c4.7,0,8.5,3.8,8.5,8.5c0,2.1-0.7,4-2,5.5
	l4.7,4.7c0.1,0.1,0.2,0.3,0.2,0.5c0,0.6-0.5,0.8-0.8,0.8c-0.2,0-0.4-0.1-0.5-0.2L16,17z M10.5,3.5c-3.9,0-7,3.1-7,7s3.1,7,7,7
	c3.9,0,7-3.1,7-7S14.4,3.5,10.5,3.5z"/>
</svg>
