<svg width="108" height="108" viewBox="0 0 108 108" fill="none" xmlns="http://www.w3.org/2000/svg">
<g filter="url(#filter0_d_479_750)">
<rect x="4" width="100" height="100" rx="50" fill="white"/>
<rect x="6.5" y="2.5" width="95" height="95" rx="47.5" stroke="#CAA2A1" stroke-width="5"/>
<path d="M25.3782 32.8234C23.5365 39.789 23.5403 47.0772 25.3912 54.0413V54.0463C26.0663 56.5441 28.637 58.1534 31.312 57.7841C37.5225 57.0019 43.204 54.6088 48.2642 51.3242C48.2773 51.318 48.2812 51.313 48.2903 51.3071L49.1897 50.6919C47.6767 50.03 46.6114 48.5669 46.6114 46.8809V46.8247L42.986 47.772C42.291 47.9542 41.5734 47.5617 41.3836 46.8955C41.1937 46.2287 41.6046 45.5407 42.3008 45.3599L46.6114 44.2344V42.8868L42.3008 41.7589C41.6058 41.578 41.1953 40.8918 41.3836 40.2257C41.5426 39.6614 42.0887 39.2781 42.6981 39.3029C42.796 39.3066 42.8921 39.3219 42.986 39.3469L46.6114 40.2941V39.9548C46.6114 38.2667 47.6786 36.8003 49.1946 36.1389L48.3005 35.5286C41.0464 30.4042 31.6679 29.0925 31.3126 29.0443C29.1666 28.7564 26.1614 29.8635 25.3782 32.8234ZM76.6909 29.0441C74.7566 29.3058 66.7119 30.6452 59.7029 35.5308L58.8112 36.1387C60.3262 36.8006 61.3921 38.2673 61.3921 39.9546V40.294L65.0174 39.3467C65.1114 39.3218 65.2079 39.3071 65.3053 39.3027C65.9148 39.278 66.4608 39.6612 66.6198 40.2255C66.8082 40.8916 66.3977 41.5779 65.7026 41.7587L61.3921 42.8866V44.2343L65.7026 45.3598C66.399 45.5406 66.8098 46.2285 66.6198 46.8954C66.43 47.5616 65.7125 47.954 65.0174 47.7718L61.3921 46.8246V46.8807C61.3921 48.5667 60.3268 50.0298 58.8138 50.6917L59.7131 51.3069C59.7262 51.3132 59.7302 51.3182 59.738 51.324C64.7982 54.6087 70.4795 57.0017 76.6901 57.7839C79.365 58.1532 81.9359 56.544 82.611 54.0462V54.0412C84.4589 47.0771 84.4628 39.7888 82.624 32.8232C81.8403 29.8615 78.8337 28.7562 76.6909 29.0441ZM50.9822 37.0128C49.3046 37.0128 47.9149 38.3469 47.9149 39.9546V46.8808C47.9149 48.4885 49.3046 49.8202 50.9822 49.8202H57.0201C58.6979 49.8202 60.0877 48.4885 60.0877 46.8808V39.9546C60.0877 38.3469 58.6979 37.0128 57.0201 37.0128H50.9822ZM50.8883 51.0677L49.0513 52.3226V52.3251C49.0357 52.3351 49.0213 52.3467 49.0056 52.3569V52.3594C45.0501 54.9269 40.6993 56.9764 35.9999 58.1674L32.0026 63.9119C31.3738 64.8164 32.1657 66.0059 33.2865 65.8406L40.0812 64.8397L42.6621 70.2766C43.125 71.25 44.5667 71.2529 45.0338 70.2816L54.012 51.5635L62.9899 70.2815C63.4572 71.2529 64.8991 71.25 65.3619 70.2765L67.9426 64.8395L74.7372 65.8405C75.8581 66.0058 76.65 64.8163 76.0213 63.9118L72.0214 58.1648C67.3233 56.9739 62.9727 54.9261 59.0181 52.3592V52.3567C59.0011 52.3455 58.9842 52.3342 58.9673 52.3226L57.1303 51.0678C55.0549 51.0728 52.9791 51.0715 50.9039 51.0678L50.8883 51.0677Z" fill="#E2D5CE"/>
</g>
<defs>
<filter id="filter0_d_479_750" x="0" y="0" width="108" height="108" filterUnits="userSpaceOnUse" color-interpolation-filters="sRGB">
<feFlood flood-opacity="0" result="BackgroundImageFix"/>
<feColorMatrix in="SourceAlpha" type="matrix" values="0 0 0 0 0 0 0 0 0 0 0 0 0 0 0 0 0 0 127 0" result="hardAlpha"/>
<feOffset dy="4"/>
<feGaussianBlur stdDeviation="2"/>
<feComposite in2="hardAlpha" operator="out"/>
<feColorMatrix type="matrix" values="0 0 0 0 0 0 0 0 0 0 0 0 0 0 0 0 0 0 0.1 0"/>
<feBlend mode="normal" in2="BackgroundImageFix" result="effect1_dropShadow_479_750"/>
<feBlend mode="normal" in="SourceGraphic" in2="effect1_dropShadow_479_750" result="shape"/>
</filter>
</defs>
</svg>
